<?xml version="1.0" encoding="UTF-8" standalone="no"?>
<!DOCTYPE svg PUBLIC "-//W3C//DTD SVG 1.1//EN"
 "http://www.w3.org/Graphics/SVG/1.1/DTD/svg11.dtd">
<!-- Generated by graphviz version 2.42.4 (0)
 -->
<!-- Title: G Pages: 1 -->
<svg width="587pt" height="312pt"
 viewBox="0.00 0.00 587.10 311.60" xmlns="http://www.w3.org/2000/svg" xmlns:xlink="http://www.w3.org/1999/xlink">
<g id="graph0" class="graph" transform="scale(1 1) rotate(0) translate(28.8 282.8)">
<title>G</title>
<polygon fill="white" stroke="transparent" points="-28.8,28.8 -28.8,-282.8 558.3,-282.8 558.3,28.8 -28.8,28.8"/>
<!-- p -->
<g id="node1" class="node">
<title>p</title>
<path fill="#dae8fc" stroke="black" d="M260.5,-254C260.5,-254 225.5,-254 225.5,-254 219.5,-254 213.5,-248 213.5,-242 213.5,-242 213.5,-230 213.5,-230 213.5,-224 219.5,-218 225.5,-218 225.5,-218 260.5,-218 260.5,-218 266.5,-218 272.5,-224 272.5,-230 272.5,-230 272.5,-242 272.5,-242 272.5,-248 266.5,-254 260.5,-254"/>
<text text-anchor="middle" x="243" y="-232.3" font-family="Arial" font-size="14.00">Project</text>
</g>
<!-- pages -->
<g id="node2" class="node">
<title>pages</title>
<path fill="#d5e8d4" stroke="black" d="M82.5,-182C82.5,-182 51.5,-182 51.5,-182 45.5,-182 39.5,-176 39.5,-170 39.5,-170 39.5,-158 39.5,-158 39.5,-152 45.5,-146 51.5,-146 51.5,-146 82.5,-146 82.5,-146 88.5,-146 94.5,-152 94.5,-158 94.5,-158 94.5,-170 94.5,-170 94.5,-176 88.5,-182 82.5,-182"/>
<text text-anchor="middle" x="67" y="-160.3" font-family="Arial" font-size="14.00">Pages</text>
</g>
<!-- p&#45;&gt;pages -->
<g id="edge1" class="edge">
<title>p&#45;&gt;pages</title>
<path fill="none" stroke="black" d="M213.49,-224.39C185.2,-214.07 141.39,-197.7 104,-182 103.91,-181.96 103.81,-181.92 103.72,-181.88"/>
<polygon fill="black" stroke="black" points="105.36,-178.78 94.79,-178.01 102.57,-185.2 105.36,-178.78"/>
</g>
<!-- comps -->
<g id="node3" class="node">
<title>comps</title>
<path fill="#d5e8d4" stroke="black" d="M195,-182C195,-182 125,-182 125,-182 119,-182 113,-176 113,-170 113,-170 113,-158 113,-158 113,-152 119,-146 125,-146 125,-146 195,-146 195,-146 201,-146 207,-152 207,-158 207,-158 207,-170 207,-170 207,-176 201,-182 195,-182"/>
<text text-anchor="middle" x="160" y="-160.3" font-family="Arial" font-size="14.00">Components</text>
</g>
<!-- p&#45;&gt;comps -->
<g id="edge2" class="edge">
<title>p&#45;&gt;comps</title>
<path fill="none" stroke="black" d="M222.48,-217.7C212.13,-208.97 199.41,-198.24 188.16,-188.75"/>
<polygon fill="black" stroke="black" points="190.18,-185.88 180.28,-182.1 185.67,-191.23 190.18,-185.88"/>
</g>
<!-- source -->
<g id="node6" class="node">
<title>source</title>
<path fill="#ffe6cc" stroke="black" d="M414.5,-182C414.5,-182 237.5,-182 237.5,-182 231.5,-182 225.5,-176 225.5,-170 225.5,-170 225.5,-158 225.5,-158 225.5,-152 231.5,-146 237.5,-146 237.5,-146 414.5,-146 414.5,-146 420.5,-146 426.5,-152 426.5,-158 426.5,-158 426.5,-170 426.5,-170 426.5,-176 420.5,-182 414.5,-182"/>
<text text-anchor="middle" x="326" y="-160.3" font-family="Arial" font-size="14.00">Workspace / Source mappings</text>
</g>
<!-- p&#45;&gt;source -->
<g id="edge6" class="edge">
<title>p&#45;&gt;source</title>
<path fill="none" stroke="black" d="M263.52,-217.7C273.87,-208.97 286.59,-198.24 297.84,-188.75"/>
<polygon fill="black" stroke="black" points="300.33,-191.23 305.72,-182.1 295.82,-185.88 300.33,-191.23"/>
</g>
<!-- editor -->
<g id="node7" class="node">
<title>editor</title>
<path fill="#f5f5f5" stroke="black" d="M517.5,-182C517.5,-182 456.5,-182 456.5,-182 450.5,-182 444.5,-176 444.5,-170 444.5,-170 444.5,-158 444.5,-158 444.5,-152 450.5,-146 456.5,-146 456.5,-146 517.5,-146 517.5,-146 523.5,-146 529.5,-152 529.5,-158 529.5,-158 529.5,-170 529.5,-170 529.5,-176 523.5,-182 517.5,-182"/>
<text text-anchor="middle" x="487" y="-160.3" font-family="Arial" font-size="14.00">Editor state</text>
</g>
<!-- p&#45;&gt;editor -->
<g id="edge7" class="edge">
<title>p&#45;&gt;editor</title>
<path fill="none" stroke="black" d="M272.57,-227.41C308.71,-218.01 371.92,-201.21 434.8,-182.29"/>
<polygon fill="black" stroke="black" points="435.92,-185.61 444.48,-179.36 433.89,-178.91 435.92,-185.61"/>
</g>
<!-- nodes -->
<g id="node4" class="node">
<title>nodes</title>
<path fill="#dae8fc" stroke="black" d="M214,-110C214,-110 12,-110 12,-110 6,-110 0,-104 0,-98 0,-98 0,-84 0,-84 0,-78 6,-72 12,-72 12,-72 214,-72 214,-72 220,-72 226,-78 226,-84 226,-84 226,-98 226,-98 226,-104 220,-110 214,-110"/>
<text text-anchor="middle" x="113" y="-94.8" font-family="Arial" font-size="14.00">Node trees</text>
<text text-anchor="middle" x="113" y="-79.8" font-family="Arial" font-size="14.00">props + responsive style + children</text>
</g>
<!-- pages&#45;&gt;nodes -->
<g id="edge3" class="edge">
<title>pages&#45;&gt;nodes</title>
<path fill="none" stroke="black" d="M78.14,-145.81C83.45,-137.6 89.94,-127.59 95.87,-118.44"/>
<polygon fill="black" stroke="black" points="98.83,-120.32 101.33,-110.02 92.95,-116.51 98.83,-120.32"/>
</g>
<!-- comps&#45;&gt;nodes -->
<g id="edge4" class="edge">
<title>comps&#45;&gt;nodes</title>
<path fill="none" stroke="black" d="M148.62,-145.81C143.19,-137.6 136.56,-127.59 130.5,-118.44"/>
<polygon fill="black" stroke="black" points="133.37,-116.43 124.93,-110.02 127.53,-120.29 133.37,-116.43"/>
</g>
<!-- actions -->
<g id="node5" class="node">
<title>actions</title>
<path fill="#fff2cc" stroke="black" d="M203.5,-36C203.5,-36 22.5,-36 22.5,-36 16.5,-36 10.5,-30 10.5,-24 10.5,-24 10.5,-12 10.5,-12 10.5,-6 16.5,0 22.5,0 22.5,0 203.5,0 203.5,0 209.5,0 215.5,-6 215.5,-12 215.5,-12 215.5,-24 215.5,-24 215.5,-30 209.5,-36 203.5,-36"/>
<text text-anchor="middle" x="113" y="-14.3" font-family="Arial" font-size="14.00">Actions / Bindings / Interactions</text>
</g>
<!-- nodes&#45;&gt;actions -->
<g id="edge5" class="edge">
<title>nodes&#45;&gt;actions</title>
<path fill="none" stroke="black" d="M113,-71.72C113,-63.97 113,-54.79 113,-46.27"/>
<polygon fill="black" stroke="black" points="116.5,-46 113,-36 109.5,-46 116.5,-46"/>
</g>
</g>
</svg>
