<?xml version="1.0" encoding="UTF-8" standalone="no"?>
<!DOCTYPE svg PUBLIC "-//W3C//DTD SVG 1.1//EN"
 "http://www.w3.org/Graphics/SVG/1.1/DTD/svg11.dtd">
<!-- Generated by graphviz version 2.42.4 (0)
 -->
<!-- Title: G Pages: 1 -->
<svg width="893pt" height="117pt"
 viewBox="0.00 0.00 892.60 116.60" xmlns="http://www.w3.org/2000/svg" xmlns:xlink="http://www.w3.org/1999/xlink">
<g id="graph0" class="graph" transform="scale(1 1) rotate(0) translate(28.8 87.8)">
<title>G</title>
<polygon fill="white" stroke="transparent" points="-28.8,28.8 -28.8,-87.8 863.8,-87.8 863.8,28.8 -28.8,28.8"/>
<!-- start -->
<g id="node1" class="node">
<title>start</title>
<path fill="#dae8fc" stroke="black" d="M53,-59C53,-59 12,-59 12,-59 6,-59 0,-53 0,-47 0,-47 0,-35 0,-35 0,-29 6,-23 12,-23 12,-23 53,-23 53,-23 59,-23 65,-29 65,-35 65,-35 65,-47 65,-47 65,-53 59,-59 53,-59"/>
<text text-anchor="middle" x="32.5" y="-37.3" font-family="Arial" font-size="14.00">Session</text>
</g>
<!-- state -->
<g id="node5" class="node">
<title>state</title>
<path fill="#d5e8d4" stroke="black" d="M241,-59C241,-59 113,-59 113,-59 107,-59 101,-53 101,-47 101,-47 101,-35 101,-35 101,-29 107,-23 113,-23 113,-23 241,-23 241,-23 247,-23 253,-29 253,-35 253,-35 253,-47 253,-47 253,-53 247,-59 241,-59"/>
<text text-anchor="middle" x="177" y="-37.3" font-family="Arial" font-size="14.00">State / route / overlays</text>
</g>
<!-- start&#45;&gt;state -->
<g id="edge1" class="edge">
<title>start&#45;&gt;state</title>
<path fill="none" stroke="black" d="M65.13,-41C72.87,-41 81.53,-41 90.51,-41"/>
<polygon fill="black" stroke="black" points="90.74,-44.5 100.74,-41 90.74,-37.5 90.74,-44.5"/>
</g>
<!-- event -->
<g id="node2" class="node">
<title>event</title>
<path fill="#d5e8d4" stroke="black" d="M492,-36C492,-36 462,-36 462,-36 456,-36 450,-30 450,-24 450,-24 450,-12 450,-12 450,-6 456,0 462,0 462,0 492,0 492,0 498,0 504,-6 504,-12 504,-12 504,-24 504,-24 504,-30 498,-36 492,-36"/>
<text text-anchor="middle" x="477" y="-14.3" font-family="Arial" font-size="14.00">Event</text>
</g>
<!-- cond -->
<g id="node3" class="node">
<title>cond</title>
<path fill="#fff2cc" stroke="black" d="M663,-36C663,-36 552,-36 552,-36 546,-36 540,-30 540,-24 540,-24 540,-12 540,-12 540,-6 546,0 552,0 552,0 663,0 663,0 669,0 675,-6 675,-12 675,-12 675,-24 675,-24 675,-30 669,-36 663,-36"/>
<text text-anchor="middle" x="607.5" y="-14.3" font-family="Arial" font-size="14.00">Restricted condition</text>
</g>
<!-- event&#45;&gt;cond -->
<g id="edge2" class="edge">
<title>event&#45;&gt;cond</title>
<path fill="none" stroke="black" d="M504,-18C511.71,-18 520.56,-18 529.77,-18"/>
<polygon fill="black" stroke="black" points="529.87,-21.5 539.87,-18 529.87,-14.5 529.87,-21.5"/>
</g>
<!-- action -->
<g id="node4" class="node">
<title>action</title>
<path fill="#ffe6cc" stroke="black" d="M823,-59C823,-59 723,-59 723,-59 717,-59 711,-53 711,-47 711,-47 711,-35 711,-35 711,-29 717,-23 723,-23 723,-23 823,-23 823,-23 829,-23 835,-29 835,-35 835,-35 835,-47 835,-47 835,-53 829,-59 823,-59"/>
<text text-anchor="middle" x="773" y="-37.3" font-family="Arial" font-size="14.00">Declarative action</text>
</g>
<!-- cond&#45;&gt;action -->
<g id="edge3" class="edge">
<title>cond&#45;&gt;action</title>
<path fill="none" stroke="black" d="M675,-27.35C683.52,-28.55 692.26,-29.78 700.85,-30.99"/>
<polygon fill="black" stroke="black" points="700.44,-34.47 710.83,-32.39 701.41,-27.54 700.44,-34.47"/>
</g>
<!-- action&#45;&gt;state -->
<g id="edge4" class="edge">
<title>action&#45;&gt;state</title>
<path fill="none" stroke="black" d="M710.95,-43.9C699.03,-44.36 686.63,-44.76 675,-45 503.48,-48.53 460.53,-48.09 289,-45 280.69,-44.85 272.02,-44.64 263.36,-44.39"/>
<polygon fill="black" stroke="black" points="263.33,-40.88 253.22,-44.08 263.11,-47.88 263.33,-40.88"/>
</g>
<!-- view -->
<g id="node6" class="node">
<title>view</title>
<path fill="#e1d5e7" stroke="black" d="M402,-36C402,-36 301,-36 301,-36 295,-36 289,-30 289,-24 289,-24 289,-12 289,-12 289,-6 295,0 301,0 301,0 402,0 402,0 408,0 414,-6 414,-12 414,-12 414,-24 414,-24 414,-30 408,-36 402,-36"/>
<text text-anchor="middle" x="351.5" y="-14.3" font-family="Arial" font-size="14.00">UI/MCP summary</text>
</g>
<!-- state&#45;&gt;view -->
<g id="edge5" class="edge">
<title>state&#45;&gt;view</title>
<path fill="none" stroke="black" d="M253.16,-30.98C261.61,-29.85 270.22,-28.7 278.63,-27.58"/>
<polygon fill="black" stroke="black" points="279.32,-31.02 288.77,-26.23 278.4,-24.08 279.32,-31.02"/>
</g>
<!-- view&#45;&gt;event -->
<g id="edge6" class="edge">
<title>view&#45;&gt;event</title>
<path fill="none" stroke="black" d="M414.25,-18C422.97,-18 431.69,-18 439.72,-18"/>
<polygon fill="black" stroke="black" points="439.81,-21.5 449.81,-18 439.81,-14.5 439.81,-21.5"/>
</g>
</g>
</svg>
